<?xml version="1.0" encoding="UTF-8"?>
<svg width="734px" height="76px" viewBox="0 0 734 76" version="1.1" xmlns="http://www.w3.org/2000/svg" xmlns:xlink="http://www.w3.org/1999/xlink">
    <!-- Generator: Sketch 42 (36781) - http://www.bohemiancoding.com/sketch -->
    <title>Group</title>
    <desc>Created with Sketch.</desc>
    <defs></defs>
    <g id="Page-1" stroke="none" stroke-width="1" fill="none" fill-rule="evenodd">
        <g id="Artboard" transform="translate(-183.000000, -290.000000)" fill="#1EA968">
            <g id="Group" transform="translate(178.000000, 269.000000)">
                <path d="M18.0498047,64.7333984 L17.9018555,64.7333984 L17.9018555,21.5322266 L5.62207031,21.5322266 L5.62207031,96 L17.9018555,96 L17.9018555,77.1611328 L22.2416992,72.7719727 L39.6010742,96 L53.8041992,96 L31.1186523,65.3251953 L52.9165039,42.097168 L38.6640625,42.097168 L18.0498047,64.7333984 Z M59.3571531,96 L71.6369383,96 L71.6369383,21.5322266 L59.3571531,21.5322266 L59.3571531,96 Z M101.996045,87.1723633 C109.442822,87.1723633 115.114209,82.5366211 115.114209,75.9775391 L115.114209,71.8842773 L102.785107,72.6733398 C96.0780758,73.1171875 92.5272945,75.6816406 92.5272945,80.0708008 C92.5272945,84.4106445 96.2753414,87.1723633 101.996045,87.1723633 Z M98.3959469,96.5917969 C87.7929195,96.5917969 80.198193,90.1313477 80.198193,80.5639648 C80.198193,70.9472656 87.5463375,65.4731445 101.108349,64.6347656 L115.114209,63.7963867 L115.114209,59.8510742 C115.114209,54.1303711 111.267529,51.0234375 104.65913,51.0234375 C99.0863766,51.0234375 95.0917477,53.9331055 94.2533688,58.2729492 L82.9105953,58.2729492 C83.2064938,48.409668 92.3793453,41.3574219 105.053662,41.3574219 C118.517041,41.3574219 127.246045,48.3603516 127.246045,59.0620117 L127.246045,96 L115.459423,96 L115.459423,87.3203125 L115.163525,87.3203125 C112.204541,93.090332 105.546826,96.5917969 98.3959469,96.5917969 Z M136.596362,57.6811523 C136.596362,65.3251953 141.626635,70.4047852 151.489916,72.7226562 L161.254565,75.0898438 C166.630053,76.3720703 168.602709,78.0488281 168.602709,81.2050781 C168.602709,85.199707 164.706713,87.7148438 158.44353,87.7148438 C152.032397,87.7148438 148.037768,85.0024414 147.298022,80.1201172 L135.215502,80.1201172 C136.004565,90.1313477 144.733569,96.7890625 157.950366,96.7890625 C171.463061,96.7890625 180.833178,90.0327148 180.833178,80.0214844 C180.833178,72.081543 176.6906,67.9882812 165.840991,65.4731445 L156.372241,63.3032227 C151.046069,62.0703125 148.530932,59.9990234 148.530932,56.9907227 C148.530932,53.0454102 152.278979,50.4316406 157.999682,50.4316406 C163.868334,50.4316406 167.76433,53.2919922 168.158862,57.8291016 L179.600268,57.8291016 C179.353686,48.0644531 170.673998,41.3574219 158.246264,41.3574219 C145.276049,41.3574219 136.596362,47.9165039 136.596362,57.6811523 Z M188.06289,57.6811523 C188.06289,65.3251953 193.093163,70.4047852 202.956445,72.7226562 L212.721093,75.0898438 C218.096581,76.3720703 220.069237,78.0488281 220.069237,81.2050781 C220.069237,85.199707 216.173241,87.7148438 209.910058,87.7148438 C203.498925,87.7148438 199.504296,85.0024414 198.76455,80.1201172 L186.68203,80.1201172 C187.471093,90.1313477 196.200097,96.7890625 209.416894,96.7890625 C222.929589,96.7890625 232.299706,90.0327148 232.299706,80.0214844 C232.299706,72.081543 228.157128,67.9882812 217.307519,65.4731445 L207.838769,63.3032227 C202.512597,62.0703125 199.99746,59.9990234 199.99746,56.9907227 C199.99746,53.0454102 203.745507,50.4316406 209.46621,50.4316406 C215.334862,50.4316406 219.230859,53.2919922 219.62539,57.8291016 L231.066796,57.8291016 C230.820214,48.0644531 222.140527,41.3574219 209.712792,41.3574219 C196.742577,41.3574219 188.06289,47.9165039 188.06289,57.6811523 Z M240.46643,96 L252.746215,96 L252.746215,64.7333984 C252.746215,57.1386719 257.086059,52.4536133 264.286254,52.4536133 C266.406859,52.4536133 268.330199,52.7495117 269.365844,53.144043 L269.365844,41.9985352 C268.428832,41.7026367 267.047973,41.5053711 265.420531,41.5053711 C259.058715,41.5053711 254.225707,45.1547852 252.499633,51.4672852 L252.253051,51.4672852 L252.253051,42.097168 L240.46643,42.097168 L240.46643,96 Z M323.347509,42.097168 L311.067723,42.097168 L311.067723,73.0185547 C311.067723,81.0078125 306.481298,86.284668 298.985204,86.284668 C291.735692,86.284668 287.938329,82.043457 287.938329,74.2021484 L287.938329,42.097168 L275.658544,42.097168 L275.658544,76.6679688 C275.658544,89.0957031 283.006688,96.6904297 294.743993,96.6904297 C302.930516,96.6904297 308.306005,93.1396484 311.264989,86.5805664 L311.560888,86.5805664 L311.560888,96 L323.347509,96 L323.347509,42.097168 Z M333.782787,96 L346.062572,96 L346.062572,63.2539062 C346.062572,56.5961914 350.451732,51.8125 356.665599,51.8125 C362.632884,51.8125 366.380931,55.5605469 366.380931,61.6264648 L366.380931,96 L378.315502,96 L378.315502,62.9580078 C378.315502,56.3989258 382.606029,51.8125 388.77058,51.8125 C395.08308,51.8125 398.633861,55.6098633 398.633861,62.3168945 L398.633861,96 L410.913646,96 L410.913646,59.3085938 C410.913646,48.5576172 403.910716,41.4560547 393.307689,41.4560547 C385.565013,41.4560547 379.104564,45.5493164 376.490795,52.1577148 L376.244213,52.1577148 C374.22224,45.3027344 368.748119,41.4560547 361.153392,41.4560547 C354.05183,41.4560547 348.183177,45.3027344 345.81599,51.565918 L345.569408,51.565918 L345.569408,42.097168 L333.782787,42.097168 L333.782787,96 Z M421.001342,96 L433.281127,96 L433.281127,63.2539062 C433.281127,56.5961914 437.670288,51.8125 443.884155,51.8125 C449.85144,51.8125 453.599487,55.5605469 453.599487,61.6264648 L453.599487,96 L465.534057,96 L465.534057,62.9580078 C465.534057,56.3989258 469.824584,51.8125 475.989135,51.8125 C482.301635,51.8125 485.852416,55.6098633 485.852416,62.3168945 L485.852416,96 L498.132202,96 L498.132202,59.3085938 C498.132202,48.5576172 491.129272,41.4560547 480.526245,41.4560547 C472.783569,41.4560547 466.32312,45.5493164 463.70935,52.1577148 L463.462768,52.1577148 C461.440795,45.3027344 455.966674,41.4560547 448.371948,41.4560547 C441.270385,41.4560547 435.401733,45.3027344 433.034545,51.565918 L432.787963,51.565918 L432.787963,42.097168 L421.001342,42.097168 L421.001342,96 Z M531.299976,50.9248047 C524.09978,50.9248047 518.872241,56.1523438 518.329761,63.8457031 L543.875659,63.8457031 C543.629077,56.0537109 538.598804,50.9248047 531.299976,50.9248047 Z M543.924976,79.972168 L555.465015,79.972168 C553.88689,89.934082 544.319507,96.7890625 531.743823,96.7890625 C515.814624,96.7890625 505.951343,86.2353516 505.951343,69.2705078 C505.951343,52.3056641 515.863941,41.3574219 531.299976,41.3574219 C546.390796,41.3574219 555.958179,51.6645508 555.958179,67.9882812 L555.958179,72.0322266 L518.231128,72.0322266 L518.231128,72.7719727 C518.231128,81.4516602 523.754566,87.2216797 531.990405,87.2216797 C537.908374,87.2216797 542.4948,84.4106445 543.924976,79.972168 Z M567.626367,30.0639648 L567.626367,42.097168 L560.278223,42.097168 L560.278223,51.6152344 L567.626367,51.6152344 L567.626367,81.6982422 C567.626367,92.1040039 572.163477,96.246582 583.604883,96.246582 C586.218652,96.246582 588.733789,96.0493164 590.065332,95.753418 L590.065332,86.3339844 C589.27627,86.4326172 587.599512,86.5805664 586.415918,86.5805664 C581.977441,86.5805664 579.906152,84.4599609 579.906152,80.0214844 L579.906152,51.6152344 L590.114648,51.6152344 L590.114648,42.097168 L579.906152,42.097168 L579.906152,30.0639648 L567.626367,30.0639648 Z" id="klassrummet"></path>
                <path d="M608.230469,96.4931641 C610.153809,96.4931641 611.682617,94.9643555 611.682617,93.0410156 C611.682617,91.1176758 610.153809,89.5888672 608.230469,89.5888672 C606.307129,89.5888672 604.77832,91.1176758 604.77832,93.0410156 C604.77832,94.9643555 606.307129,96.4931641 608.230469,96.4931641 Z M623.632504,56.4975586 C623.632504,63.3525391 628.120297,67.2978516 637.095883,69.4677734 L645.627621,71.5390625 C654.307309,73.6103516 657.759457,76.6679688 657.759457,82.1914062 C657.759457,88.9477539 650.85516,93.3862305 642.027523,93.3862305 C632.953305,93.3862305 626.443539,88.0107422 625.753109,81.0078125 L621.90643,81.0078125 C622.498227,89.7861328 630.487484,96.6904297 641.928891,96.6904297 C653.32098,96.6904297 661.55682,90.7231445 661.55682,81.9448242 C661.55682,74.6459961 657.315609,70.7006836 646.761898,68.1362305 L638.526059,66.1142578 C630.980648,64.3388672 627.380551,61.5771484 627.380551,56.3496094 C627.380551,49.9384766 633.939633,45.5493164 641.830258,45.5493164 C650.657895,45.5493164 656.181332,50.7768555 656.970395,58.1743164 L660.718441,58.1743164 C659.880063,48.5083008 652.581234,42.1958008 641.879574,42.1958008 C631.671078,42.1958008 623.632504,48.0644531 623.632504,56.4975586 Z M692.329398,45.6479492 C681.282523,45.6479492 673.63848,54.1303711 673.046684,66.8046875 L711.168266,66.8046875 C711.118949,54.2290039 703.524223,45.6479492 692.329398,45.6479492 Z M710.527152,81.1557617 L714.423148,81.1557617 C712.697074,90.1313477 704.510551,96.6904297 692.773246,96.6904297 C678.372855,96.6904297 669.101371,86.5805664 669.101371,69.5170898 C669.101371,53.0454102 678.372855,42.1958008 692.378715,42.1958008 C706.088676,42.1958008 715.064262,52.4042969 715.064262,67.840332 L715.064262,70.0595703 L672.997367,70.0595703 L672.997367,70.2568359 C672.997367,84.7558594 680.887992,93.2382812 692.822563,93.2382812 C702.537895,93.2382812 708.998344,88.109375 710.527152,81.1557617 Z" id=".se"></path>
                <path d="M724.786133,51.8720703 L724.786133,44.140625 L727.604492,44.140625 L727.604492,42.6806641 L720.304688,42.6806641 L720.304688,44.140625 L723.123047,44.140625 L723.123047,51.8720703 L724.786133,51.8720703 Z M730.181641,45.6005859 L730.232422,45.6005859 L732.860352,51.7832031 L733.8125,51.7832031 L736.44043,45.6005859 L736.491211,45.6005859 L736.491211,51.8720703 L738.06543,51.8720703 L738.06543,42.6806641 L736.097656,42.6806641 L733.355469,49.2060547 L733.304688,49.2060547 L730.5625,42.6806641 L728.594727,42.6806641 L728.594727,51.8720703 L730.181641,51.8720703 L730.181641,45.6005859 Z" id="™"></path>
            </g>
        </g>
    </g>
</svg>